# Blender v2.78 (sub 0) OBJ File: ''
# www.blender.org
mtllib edgeNoG.mtl
o Cube.003_Cube.004
v -1.000000 0.000000 -8.000000
v -1.000000 0.700000 -8.000000
v -1.000000 0.000000 -8.200000
v 1.000000 0.000000 -8.000000
v 1.000000 0.700000 -8.000000
v 1.000000 0.000000 -8.200000
v 1.000000 0.700000 -8.200000
v -0.953333 0.000000 -8.000000
v 0.953333 0.000000 -8.000000
v -1.000000 0.700000 -8.200000
v 0.953333 0.700000 -8.000000
v -0.953333 0.700000 -8.000000
v 0.953333 0.000000 -8.200000
v -0.953333 0.000000 -8.200000
v 0.953333 0.700000 -8.200000
v -0.953333 0.700000 -8.200000
vt 0.7107 0.3748
vt 0.0000 0.4992
vt 0.0000 0.3748
vt 0.7107 0.5008
vt 0.0000 0.6252
vt 0.0000 0.5008
vt 0.0331 0.8740
vt 0.0000 0.6252
vt 0.0331 0.6252
vt 0.0331 0.6252
vt 0.0000 0.5023
vt 0.0331 0.5023
vt 0.6777 0.0000
vt 0.7107 0.2504
vt 0.6777 0.2504
vt 0.0001 0.0001
vt 0.0331 0.2504
vt 0.0000 0.2504
vt 0.0351 0.0000
vt 0.7107 0.0000
vt 0.0000 0.1260
vt 0.0000 0.0000
vt 0.7107 0.8740
vt 0.6777 0.6252
vt 0.7107 0.6252
vt 0.6777 0.8740
vt 0.6777 0.5023
vt 0.7107 0.6283
vt 0.6777 0.6283
vt 0.7107 0.4992
vt 0.7107 0.6252
vt 0.0000 0.8740
vt 0.0000 0.6252
vt 0.7107 0.0000
vt 0.7107 0.1244
vt 0.7107 0.5023
vt 0.0000 0.0000
vt 0.0000 0.0000
vt 0.0000 0.0000
vt 0.0000 0.0000
vt 0.0000 0.0000
vt 0.0000 0.0000
vt 0.0000 0.0000
vn -1.0000 0.0000 0.0000
vn 1.0000 0.0000 0.0000
vn 0.0000 0.0000 1.0000
vn 0.0000 1.0000 0.0000
vn 0.0000 0.0000 -1.0000
vn 0.0000 -1.0000 0.0000
usemtl Material.001
s off
f 2/1/1 3/2/1 1/3/1
f 7/4/2 4/5/2 6/6/2
f 12/7/3 1/8/3 8/9/3
f 16/10/4 2/11/4 12/12/4
f 15/13/5 6/14/5 13/15/5
f 10/16/5 14/17/5 3/18/5
f 16/19/5 13/15/5 14/17/5
f 13/20/6 8/21/6 14/22/6
f 5/23/3 9/24/3 4/25/3
f 11/26/3 8/9/3 9/24/3
f 11/27/4 7/28/4 15/29/4
f 11/27/4 16/10/4 12/12/4
f 2/1/1 10/30/1 3/2/1
f 7/4/2 5/31/2 4/5/2
f 12/7/3 2/32/3 1/8/3
f 16/10/4 10/33/4 2/11/4
f 15/13/5 7/34/5 6/14/5
f 10/16/5 16/19/5 14/17/5
f 16/19/5 15/13/5 13/15/5
f 13/20/6 9/35/6 8/21/6
f 5/23/3 11/26/3 9/24/3
f 11/26/3 12/7/3 8/9/3
f 11/27/4 5/36/4 7/28/4
f 11/27/4 15/29/4 16/10/4
usemtl Material.001_NONE
f 6/37/6 9/38/6 13/39/6
f 14/22/6 1/40/6 3/41/6
f 6/37/6 4/42/6 9/38/6
f 14/22/6 8/43/6 1/40/6
