# Blender v2.78 (sub 0) OBJ File: ''
# www.blender.org
mtllib edge.mtl
o Cube.002_Cube.003
v 0.953333 1.400000 -7.730000
v -0.953333 1.400000 -7.730000
v 0.953333 0.700000 -8.030000
v -0.953333 0.700000 -8.030000
v 0.953333 1.400000 -7.869999
v -0.953333 1.400000 -7.869999
v 0.953333 0.700000 -8.169999
v -0.953333 0.700000 -8.169999
vt 1.0000 0.6003
vt 0.7376 1.0000
vt 1.0000 1.0000
vt 0.7376 0.6003
vt 1.0000 1.0000
vt 1.0000 0.6003
vt 0.7107 1.0000
vt 0.7355 0.6003
vt 0.7107 0.6003
vt 0.7376 0.6003
vt 0.7376 1.0000
vt 0.7355 1.0000
vn 0.0000 -0.3939 0.9191
vn 0.0000 0.3939 -0.9191
vn 0.0000 1.0000 0.0000
usemtl Material.002
s off
f 3/1/1 2/2/1 4/3/1
f 6/4/2 7/5/2 8/6/2
f 5/7/3 2/8/3 1/9/3
f 3/1/1 1/10/1 2/2/1
f 6/4/2 5/11/2 7/5/2
f 5/7/3 6/12/3 2/8/3
o Cube.001_Cube.002
v -1.000000 0.000000 -8.000000
v -1.000000 0.700000 -8.000000
v -1.000000 0.000000 -8.200000
v -1.000000 0.700000 -8.200000
v 1.000000 0.000000 -8.000000
v 1.000000 0.700000 -8.000000
v 1.000000 0.000000 -8.200000
v 1.000000 0.700000 -8.200000
v -1.000000 1.400000 -7.700000
v -1.000000 1.400000 -7.900000
v 1.000000 1.400000 -7.900000
v 1.000000 1.400000 -7.700000
v -0.953333 0.000000 -8.000000
v 0.953333 0.000000 -8.000000
v 0.953333 1.400000 -7.700000
v -0.953333 1.400000 -7.700000
v 0.953333 0.700000 -8.000000
v -0.953333 0.700000 -8.000000
v 0.953333 0.000000 -8.200000
v -0.953333 0.000000 -8.200000
v 0.953333 1.400000 -7.900000
v -0.953333 1.400000 -7.900000
v 0.953333 0.700000 -8.200000
v -0.953333 0.700000 -8.200000
vt 0.7107 0.3748
vt 0.0000 0.4992
vt 0.0000 0.3748
vt 0.7107 0.5008
vt 0.0000 0.6252
vt 0.0000 0.5008
vt 0.0331 0.8740
vt 0.0000 0.6252
vt 0.0331 0.6252
vt 0.0000 0.8771
vt 0.7107 0.7527
vt 0.7107 0.8771
vt 0.0000 0.6283
vt 0.7107 0.5008
vt 0.7107 0.6252
vt 0.0000 0.6267
vt 0.7107 0.7512
vt 0.0000 0.7512
vt 0.0000 0.8756
vt 0.7107 1.0000
vt 0.0000 1.0000
vt 0.0000 0.8756
vt 0.7107 1.0000
vt 0.0000 1.0000
vt 0.6777 0.0000
vt 0.7107 0.2504
vt 0.6777 0.2504
vt 0.0001 0.0001
vt 0.0331 0.2504
vt 0.0000 0.2504
vt 0.0351 0.0000
vt 0.7107 0.0000
vt 0.0000 0.1260
vt 0.0000 0.0000
vt 0.0000 0.8756
vt 0.7107 1.0000
vt 0.0000 1.0000
vt 0.0000 0.8756
vt 0.7107 1.0000
vt 0.0000 1.0000
vt 0.0000 0.5023
vt 0.7107 0.6252
vt 0.0000 0.6283
vt 0.7107 0.8740
vt 0.6777 0.6252
vt 0.7107 0.6252
vt 0.6777 0.8740
vt 0.0000 0.7512
vt 0.7107 0.6252
vt 0.7107 0.7512
vt 0.7107 0.1260
vt 0.0000 0.0000
vt 0.7107 0.0000
vt 0.7107 0.3748
vt 0.0000 0.4992
vt 0.0000 0.3748
vt 0.7107 0.4992
vt 0.7107 0.6252
vt 0.0000 0.8740
vt 0.0000 0.7527
vt 0.0000 0.5023
vt 0.7107 0.6267
vt 0.7107 0.8740
vt 0.7107 0.8740
vt 0.7107 0.0000
vt 0.7107 0.1244
vt 0.7107 0.8740
vt 0.7107 0.8740
vt 0.7107 0.5008
vt 0.0000 0.6267
vt 0.0000 0.1260
vt 0.7107 0.4992
vt 0.0000 0.0000
vt 0.0000 0.0000
vt 0.0000 0.0000
vt 0.0000 0.0000
vt 0.0000 0.0000
vt 0.0000 0.0000
vt 0.0000 0.0000
vn -1.0000 0.0000 0.0000
vn 1.0000 0.0000 0.0000
vn 0.0000 0.0000 1.0000
vn 0.0000 1.0000 0.0000
vn 0.0000 0.3939 -0.9191
vn 0.0000 -0.3939 0.9191
vn 0.0000 0.0000 -1.0000
vn 0.0000 -1.0000 0.0000
vn 0.0001 0.3939 -0.9191
vn -0.0001 0.3939 -0.9191
usemtl Material.001
s off
f 10/13/4 11/14/4 9/15/4
f 16/16/5 13/17/5 15/18/5
f 26/19/6 9/20/6 21/21/6
f 14/22/5 19/23/5 20/24/5
f 30/25/7 17/26/7 24/27/7
f 10/28/4 18/29/4 12/30/4
f 12/31/8 30/32/8 32/33/8
f 14/34/9 23/35/9 25/36/9
f 31/37/10 15/38/10 27/39/10
f 12/40/10 28/41/10 11/42/10
f 32/43/10 27/39/10 28/41/10
f 27/44/11 21/45/11 28/46/11
f 26/47/9 17/48/9 10/49/9
f 31/50/8 19/51/8 16/52/8
f 29/53/7 20/54/7 19/55/7
f 14/56/6 22/57/6 13/58/6
f 25/59/6 21/21/6 22/57/6
f 26/60/5 30/61/5 24/62/5
f 25/63/4 29/64/4 31/65/4
f 25/66/7 32/67/7 26/68/7
f 10/13/4 12/69/4 11/14/4
f 16/16/5 14/70/5 13/17/5
f 26/19/6 10/71/6 9/20/6
f 14/22/5 16/72/5 19/23/5
f 30/25/7 18/73/7 17/26/7
f 10/28/4 17/74/4 18/29/4
f 12/31/12 18/75/12 30/32/12
f 14/34/9 20/76/9 23/35/9
f 31/37/10 16/77/10 15/38/10
f 12/40/10 32/43/10 28/41/10
f 32/43/10 31/37/10 27/39/10
f 27/44/11 22/78/11 21/45/11
f 26/47/9 24/79/9 17/48/9
f 31/50/13 29/80/13 19/51/13
f 29/53/7 23/81/7 20/54/7
f 14/56/6 25/59/6 22/57/6
f 25/59/6 26/19/6 21/21/6
f 26/60/5 32/82/5 30/61/5
f 25/63/4 23/83/4 29/64/4
f 25/66/7 31/84/7 32/67/7
usemtl Material.001_NONE
f 15/85/11 22/86/11 27/87/11
f 28/46/11 9/88/11 11/89/11
f 15/85/11 13/90/11 22/86/11
f 28/46/11 21/91/11 9/88/11
